<svg xmlns="http://www.w3.org/2000/svg" viewBox="0 0 124.24 49.31"><defs><style>.\35 f84c090-706f-4247-a0ae-a33cf35bd3fe{fill:#fff;}</style></defs><title>Recurso 2</title><g id="462eee21-a87f-410c-93c7-bc876761e63b" data-name="Capa 2"><g id="82b023f1-382f-4524-bb2a-e5a305ed7a8f" data-name="Capa 2"><rect class="5f84c090-706f-4247-a0ae-a33cf35bd3fe" x="35.37" y="46.5" width="53.5" height="0.83"/><rect class="5f84c090-706f-4247-a0ae-a33cf35bd3fe" y="21.92" width="62.12" height="5.47"/><rect class="5f84c090-706f-4247-a0ae-a33cf35bd3fe" x="6.25" y="12.33" width="4.94" height="24.65"/><rect class="5f84c090-706f-4247-a0ae-a33cf35bd3fe" x="62.12" y="21.92" width="62.12" height="5.47"/><rect class="5f84c090-706f-4247-a0ae-a33cf35bd3fe" x="113.05" y="12.33" width="4.94" height="24.65"/><path class="5f84c090-706f-4247-a0ae-a33cf35bd3fe" d="M12.16,0V49.31H17.1V0Zm1.47,37.38L13.15,1h1Z"/><path class="5f84c090-706f-4247-a0ae-a33cf35bd3fe" d="M17.87,0V49.31h4.93V0Zm1.48,37.38L18.87,1h1Z"/><path class="5f84c090-706f-4247-a0ae-a33cf35bd3fe" d="M23.58,0V49.31h4.94V0Zm1.49,37.38L24.58,1h1Z"/><path class="5f84c090-706f-4247-a0ae-a33cf35bd3fe" d="M95.73,0V49.31h4.94V0Zm1.59,37.38L96.84,1h1Z"/><path class="5f84c090-706f-4247-a0ae-a33cf35bd3fe" d="M101.43,0V49.31h4.93V0ZM103,37.38,102.55,1h1Z"/><path class="5f84c090-706f-4247-a0ae-a33cf35bd3fe" d="M107.14,0V49.31h4.94V0Zm1.6,37.38L108.26,1h1Z"/><polygon class="5f84c090-706f-4247-a0ae-a33cf35bd3fe" points="33.69 5.96 40.41 5.96 40.41 7.93 35.91 7.93 35.91 10.73 40.06 10.73 40.06 12.71 35.91 12.71 35.91 17.3 33.69 17.3 33.69 5.96"/><rect class="5f84c090-706f-4247-a0ae-a33cf35bd3fe" x="42.15" y="5.96" width="2.22" height="11.34"/><polygon class="5f84c090-706f-4247-a0ae-a33cf35bd3fe" points="54.59 7.93 51.29 7.93 51.29 17.3 49.07 17.3 49.07 7.93 45.74 7.93 45.74 5.95 54.59 5.95 54.59 7.93"/><polygon class="5f84c090-706f-4247-a0ae-a33cf35bd3fe" points="58.56 11.38 57.67 9.6 57.59 9.6 57.85 11.38 57.85 17.3 55.74 17.3 55.74 5.87 57.36 5.87 61.66 11.92 62.52 13.65 62.6 13.65 62.34 11.92 62.34 5.96 64.44 5.96 64.44 17.38 62.83 17.38 58.56 11.38"/><polygon class="5f84c090-706f-4247-a0ae-a33cf35bd3fe" points="66.39 5.96 73.11 5.96 73.11 7.93 68.61 7.93 68.61 10.57 72.71 10.57 72.71 12.55 68.61 12.55 68.61 15.32 73.19 15.32 73.19 17.3 66.39 17.3 66.39 5.96"/><path class="5f84c090-706f-4247-a0ae-a33cf35bd3fe" d="M79.74,14.25a1.06,1.06,0,0,0-.38-.84,4.2,4.2,0,0,0-1-.59l-1.25-.55a6.46,6.46,0,0,1-1.25-.7,3.58,3.58,0,0,1-1-1A2.94,2.94,0,0,1,74.57,9a3.44,3.44,0,0,1,.28-1.43,2.66,2.66,0,0,1,.79-1,3.32,3.32,0,0,1,1.21-.6,5.81,5.81,0,0,1,1.56-.2,9.79,9.79,0,0,1,1.86.17,4.75,4.75,0,0,1,1.44.49L81,8.26a3.9,3.9,0,0,0-1.07-.41,6.08,6.08,0,0,0-1.54-.19A2,2,0,0,0,77.21,8a1,1,0,0,0-.42.83,1,1,0,0,0,.38.81,4.45,4.45,0,0,0,1,.6c.38.18.8.37,1.25.57a6.66,6.66,0,0,1,1.25.7,3.57,3.57,0,0,1,1,1A2.8,2.8,0,0,1,82,14a3.74,3.74,0,0,1-.3,1.56,2.94,2.94,0,0,1-.84,1.09,3.54,3.54,0,0,1-1.31.65,6.38,6.38,0,0,1-1.69.21,9,9,0,0,1-2.14-.23,6.4,6.4,0,0,1-1.36-.45L75,14.95a4.18,4.18,0,0,0,.46.21,6.07,6.07,0,0,0,.64.21,7.63,7.63,0,0,0,.75.16,5,5,0,0,0,.82.07,2.86,2.86,0,0,0,1.52-.33,1.12,1.12,0,0,0,.53-1"/><path class="5f84c090-706f-4247-a0ae-a33cf35bd3fe" d="M88.33,14.25a1.05,1.05,0,0,0-.38-.84,4.13,4.13,0,0,0-1-.59l-1.25-.55a6.41,6.41,0,0,1-1.25-.7,3.56,3.56,0,0,1-1-1A3,3,0,0,1,83.16,9a3.44,3.44,0,0,1,.28-1.43,2.71,2.71,0,0,1,.79-1,3.33,3.33,0,0,1,1.21-.6A5.79,5.79,0,0,1,87,5.73a9.78,9.78,0,0,1,1.86.17,4.73,4.73,0,0,1,1.44.49l-.69,1.86a4,4,0,0,0-1.07-.41A6.09,6.09,0,0,0,87,7.66,2,2,0,0,0,85.79,8a1,1,0,0,0-.41.83,1,1,0,0,0,.38.81,4.42,4.42,0,0,0,1,.6l1.25.57a6.76,6.76,0,0,1,1.25.7,3.64,3.64,0,0,1,1,1A2.81,2.81,0,0,1,90.55,14a3.75,3.75,0,0,1-.3,1.56,3,3,0,0,1-.84,1.09,3.58,3.58,0,0,1-1.31.65,6.39,6.39,0,0,1-1.69.21,9,9,0,0,1-2.14-.23,6.41,6.41,0,0,1-1.36-.45l.71-1.89a4.07,4.07,0,0,0,.46.21,6.13,6.13,0,0,0,.64.21,7.47,7.47,0,0,0,.75.16,5,5,0,0,0,.82.07,2.85,2.85,0,0,0,1.51-.33,1.12,1.12,0,0,0,.53-1"/><path class="5f84c090-706f-4247-a0ae-a33cf35bd3fe" d="M41.94,40.46a5.69,5.69,0,0,1-4.2,2,4.61,4.61,0,0,1-4.89-5c0-3.19,2.4-5.1,4.21-5.1a2.57,2.57,0,0,1,2.14.94l.32-.78h2.18v3.94H39.21c0-.9-.49-1.75-1.47-1.75s-1.65,1.23-1.65,2.75.71,2.6,2,2.6a3.33,3.33,0,0,0,2.2-1.36Z"/><polygon class="5f84c090-706f-4247-a0ae-a33cf35bd3fe" points="50.86 32.5 50.86 35.56 48.46 35.56 48.46 34.33 46.25 34.33 46.25 36.24 48.88 36.24 48.88 38.08 46.25 38.08 46.25 40.34 48.46 40.34 48.46 39.05 50.86 39.05 50.86 42.19 42.5 42.19 42.5 40.34 43.38 40.34 43.38 34.33 42.5 34.33 42.5 32.5 50.86 32.5"/><polygon class="5f84c090-706f-4247-a0ae-a33cf35bd3fe" points="61.26 34.28 61.26 42.19 58.28 42.19 54.75 36.91 54.75 40.4 55.82 40.4 55.82 42.19 51.56 42.19 51.56 40.4 52.38 40.4 52.38 34.28 51.57 34.28 51.57 32.5 55.55 32.5 58.95 37.59 58.95 34.28 58.01 34.28 58.01 32.5 62.18 32.5 62.18 34.28 61.26 34.28"/><polygon class="5f84c090-706f-4247-a0ae-a33cf35bd3fe" points="72.04 36.1 70 36.1 70 34.33 68.84 34.33 68.84 40.34 69.99 40.34 69.99 42.19 64.83 42.19 64.83 40.34 65.97 40.34 65.97 34.33 64.78 34.33 64.78 36.1 62.74 36.1 62.74 32.5 72.04 32.5 72.04 36.1"/><polygon class="5f84c090-706f-4247-a0ae-a33cf35bd3fe" points="80.96 32.5 80.96 35.56 78.56 35.56 78.56 34.33 76.34 34.33 76.34 36.24 78.98 36.24 78.98 38.08 76.34 38.08 76.34 40.34 78.56 40.34 78.56 39.05 80.96 39.05 80.96 42.19 72.6 42.19 72.6 40.34 73.48 40.34 73.48 34.33 72.6 34.33 72.6 32.5 80.96 32.5"/><path class="5f84c090-706f-4247-a0ae-a33cf35bd3fe" d="M86.16,32.5c3.22,0,3.84,1.28,3.84,2.86a2.11,2.11,0,0,1-2,2,2.1,2.1,0,0,1,1.82,2c0,.6.08.94.33.94s.32-.17.32-.44v-.46h.93v.76c0,1.15-.49,2.22-2,2.22a2.36,2.36,0,0,1-2.69-2.58c0-1.26-.15-1.57-1.39-1.57v2.15h.85v1.83H81.66V40.36h.78v-6h-.78V32.5Zm-.87,4.16h.62c.8,0,1.33-.39,1.33-1.12A1.12,1.12,0,0,0,86,34.3h-.69Z"/></g></g></svg>