<svg xmlns="http://www.w3.org/2000/svg" viewBox="0 0 676.52 144.54"><defs><style>.\31 aee281d-9ae0-45cb-8d46-511609fa6b5a{fill:#073a68;}.\34 6ca3ae4-f5f6-41de-934f-aee678a5e0ed{fill:#4d4d4d;}.ce370606-6e16-41a9-946b-b8f865947380{fill:#fff;}.e93a703d-9669-458d-bbe9-0cf0d4de8a44{fill:none;stroke:#073a68;stroke-linecap:round;stroke-miterlimit:10;}</style></defs><title>Recurso 4</title><g id="b4997020-3468-4b1a-9f83-93d9d11f6401" data-name="Capa 2"><g id="847d790d-4927-4444-974d-24e5feb2a9ed" data-name="Capa 1"><polygon class="1aee281d-9ae0-45cb-8d46-511609fa6b5a" points="227.94 144.54 0 144.54 0 141.84 10.4 141.84 21.95 141.84 227.94 141.84 227.94 144.54"/><path class="46ca3ae4-f5f6-41de-934f-aee678a5e0ed" d="M102.9,37.66,47.26,142h96.66"/><polygon class="1aee281d-9ae0-45cb-8d46-511609fa6b5a" points="113.7 16.34 119.22 5.86 173.16 142 163.57 142 113.7 16.34"/><polygon class="1aee281d-9ae0-45cb-8d46-511609fa6b5a" points="111.73 19.48 104.71 33.38 146.98 142 161.57 142 111.73 19.48"/><polygon class="1aee281d-9ae0-45cb-8d46-511609fa6b5a" points="118.27 4 43.41 142 31.57 142 109.17 4 118.27 4"/><polygon class="1aee281d-9ae0-45cb-8d46-511609fa6b5a" points="29.57 142 23.57 142 97.77 12 103.57 12 29.57 142"/><polygon class="1aee281d-9ae0-45cb-8d46-511609fa6b5a" points="22.07 142 16.07 142 87.27 17 93.07 17 22.07 142"/><polygon class="1aee281d-9ae0-45cb-8d46-511609fa6b5a" points="14.07 142 8.07 142 78.27 19 84.07 19 14.07 142"/><polygon class="1aee281d-9ae0-45cb-8d46-511609fa6b5a" points="6.32 142 0.32 142 67.52 24 73.32 24 6.32 142"/><rect class="1aee281d-9ae0-45cb-8d46-511609fa6b5a" x="175.18" width="26.15" height="141.84"/><circle class="ce370606-6e16-41a9-946b-b8f865947380" cx="188.25" cy="23" r="9.71"/><polyline class="e93a703d-9669-458d-bbe9-0cf0d4de8a44" points="188.41 16 188.41 23.5 191.91 23.5"/><polygon class="ce370606-6e16-41a9-946b-b8f865947380" points="115.91 82 103.91 82 103.91 74 94.91 74 94.91 82 82.91 82 82.91 90 94.91 90 94.91 114 103.91 114 103.91 90 115.91 90 115.91 82"/><path class="46ca3ae4-f5f6-41de-934f-aee678a5e0ed" d="M231.66,21.82V20.4l5.06.12,7.64-.15a10.9,10.9,0,0,1,3.54.46,4.84,4.84,0,0,1,2.23,1.67,5,5,0,0,1,.93,3.14,7.43,7.43,0,0,1-.9,3.59,6.92,6.92,0,0,1-2.8,2.73A8.2,8.2,0,0,1,243.28,33a9.33,9.33,0,0,1-1.07-.06,9.08,9.08,0,0,1-1-.18,7.19,7.19,0,0,0-.62-1.21l.36-.38a5.53,5.53,0,0,0,.71.18,3.4,3.4,0,0,0,.61.06A3.55,3.55,0,0,0,245,30.27,4.87,4.87,0,0,0,246,26.86a4.91,4.91,0,0,0-1.13-3.52,4.15,4.15,0,0,0-3.14-1.18,11.65,11.65,0,0,0-2.14.22q-.09,1.06-.1,3.11l-.05,3.35v6.48q0,2.39.07,5a8.47,8.47,0,0,0,.19,1.88.71.71,0,0,0,.23.3,1.33,1.33,0,0,0,.59.2l2.31.15v1.5q-4.38-.1-6.58-.1-2.43,0-4.63.1v-1.5a6.91,6.91,0,0,0,2.39-.29.58.58,0,0,0,.24-.26,4.43,4.43,0,0,0,.19-1.25q.19-2.73.19-6.08v-6l-.07-3.21q0-2.07-.08-2.58a2,2,0,0,0-.16-.73.62.62,0,0,0-.23-.24,1.93,1.93,0,0,0-.59-.19Z"/><path class="46ca3ae4-f5f6-41de-934f-aee678a5e0ed" d="M268.64,43v1.28q-2-.08-3.49-.09t-2.79.09l-.15-.19.15-2.24q-.62.39-3.62,2.7a6.79,6.79,0,0,1-1.47.17,3.85,3.85,0,0,1-2.91-1.09,4.36,4.36,0,0,1-1.05-3.14,4.84,4.84,0,0,1,.47-2.27,4,4,0,0,1,1-1.31,6,6,0,0,1,1.67-.81,35.59,35.59,0,0,1,5.91-1.5,4.64,4.64,0,0,0-.84-3.09,3.33,3.33,0,0,0-2.7-1.06,5.15,5.15,0,0,0-1.4.19,2.71,2.71,0,0,0-.68.34L256,32.73l-1.16-.26.1-2.2q1.26-.85,2.41-1.49A9.92,9.92,0,0,1,259,28a6.55,6.55,0,0,1,1.78-.19,7.54,7.54,0,0,1,3.07.54,4.55,4.55,0,0,1,1.78,1.27,4.26,4.26,0,0,1,.79,1.57,8.76,8.76,0,0,1,.21,2.12q0,.55-.09,2.85-.05,1.54-.05,2.51a21.75,21.75,0,0,0,.17,3.69.56.56,0,0,0,.27.41A6.91,6.91,0,0,0,268.64,43Zm-6.27-7a19.9,19.9,0,0,0-2.66.74A3.43,3.43,0,0,0,258,37.88a2.7,2.7,0,0,0-.46,1.62,2.39,2.39,0,0,0,.56,1.69,1.9,1.9,0,0,0,1.46.6,3.1,3.1,0,0,0,1.55-.44,3.49,3.49,0,0,0,1.22-1.13Z"/><path class="46ca3ae4-f5f6-41de-934f-aee678a5e0ed" d="M280.31,43v1.32q-1.93-.08-4.31-.09-2.65,0-5.5.09V43a6.11,6.11,0,0,0,1.85-.19.66.66,0,0,0,.36-.29,3.11,3.11,0,0,0,.19-1.23l.07-1.52q0-.48,0-1.56V36q0-1.52-.1-3.69a4.44,4.44,0,0,0-.15-1.24.55.55,0,0,0-.3-.21,9.31,9.31,0,0,0-1.93-.17V29.34q3.11-.53,4.08-.79a13.86,13.86,0,0,0,2.2-.82l.46.21,0,3.45q1.11-1.14,1.71-1.9a7.66,7.66,0,0,1,1.33-1.35,2.88,2.88,0,0,1,1.62-.41,3.06,3.06,0,0,1,1.15.21l-.1,2.43q-.05,2-.09,2.27l-.72.22a2.9,2.9,0,0,0-.82-.79,2.76,2.76,0,0,0-1.38-.36,2.58,2.58,0,0,0-1.73.62,2.4,2.4,0,0,0-.86,1.27q-.07.38-.07,2.89v1.71l0,2.32a9.85,9.85,0,0,0,.09,1.61.76.76,0,0,0,.35.47,3,3,0,0,0,1.18.24Z"/><path class="46ca3ae4-f5f6-41de-934f-aee678a5e0ed" d="M293.94,43v1.32q-1.93-.08-4.31-.09-2.65,0-5.5.09V43a6.11,6.11,0,0,0,1.85-.19.66.66,0,0,0,.36-.29,3.11,3.11,0,0,0,.19-1.23l.07-1.52q0-.48,0-1.56V36q0-1.52-.1-3.69a4.44,4.44,0,0,0-.15-1.24.55.55,0,0,0-.3-.21,9.31,9.31,0,0,0-1.93-.17V29.34q3.11-.53,4.08-.79a13.86,13.86,0,0,0,2.2-.82l.46.21,0,3.45q1.11-1.14,1.71-1.9a7.66,7.66,0,0,1,1.33-1.35,2.88,2.88,0,0,1,1.62-.41,3.06,3.06,0,0,1,1.15.21l-.1,2.43q-.05,2-.09,2.27l-.72.22a2.9,2.9,0,0,0-.82-.79,2.76,2.76,0,0,0-1.38-.36,2.58,2.58,0,0,0-1.73.62,2.4,2.4,0,0,0-.86,1.27q-.07.38-.07,2.89v1.71l0,2.32a9.85,9.85,0,0,0,.09,1.61.76.76,0,0,0,.35.47,3,3,0,0,0,1.18.24Z"/><path class="46ca3ae4-f5f6-41de-934f-aee678a5e0ed" d="M298.16,36.25a10.37,10.37,0,0,1,1-4.81,6.43,6.43,0,0,1,3-2.87,10.42,10.42,0,0,1,4.61-1,8.12,8.12,0,0,1,6,2.07q2.06,2.07,2.06,6.07a12,12,0,0,1-.6,4,7.35,7.35,0,0,1-1.61,2.73A7.47,7.47,0,0,1,310.48,44a10,10,0,0,1-4.27.89,7.84,7.84,0,0,1-6-2.2Q298.16,40.52,298.16,36.25Zm4.73-.82q0,4.55,1.33,6.48a2.89,2.89,0,0,0,2.53,1.28,2.75,2.75,0,0,0,2.22-1q1.09-1.3,1.09-5a20,20,0,0,0-.44-4.49,4.86,4.86,0,0,0-1.28-2.61,3,3,0,0,0-2-.73,3,3,0,0,0-1.79.54,3.47,3.47,0,0,0-1.2,1.81A12.32,12.32,0,0,0,302.89,35.43Z"/><path class="46ca3ae4-f5f6-41de-934f-aee678a5e0ed" d="M336.73,52v1.35l-4.48-.12-5.42.12V52l2.27-.21a.89.89,0,0,0,.59-.28,1.89,1.89,0,0,0,.16-1v-8.8q-1.76,1.33-3.57,2.87a4.23,4.23,0,0,1-1.69.32,6.17,6.17,0,0,1-4.77-2A8.24,8.24,0,0,1,318,37.15a11.81,11.81,0,0,1,.48-3.45,6,6,0,0,1,1-1.91,6.51,6.51,0,0,1,1.38-1.2,21.07,21.07,0,0,1,3.85-2.22,6,6,0,0,1,2.5-.55,8.16,8.16,0,0,1,2.27.32,15.87,15.87,0,0,1,2.72,1.15l1.79-1.45.75.38q-.31,1.85-.38,2.56t-.12,2.51q-.09,3.42-.09,3.74v7.52l.05,3.25.1,2.72a2.45,2.45,0,0,0,.18,1,.74.74,0,0,0,.47.32A13.89,13.89,0,0,0,336.73,52Zm-6.87-20.06a4.75,4.75,0,0,0-1.62-1.37,4.5,4.5,0,0,0-2.17-.56,3.18,3.18,0,0,0-2.06.64,4,4,0,0,0-1.21,2,10.52,10.52,0,0,0-.42,3.06,8.84,8.84,0,0,0,.6,3.48,4.31,4.31,0,0,0,1.43,1.95,3.52,3.52,0,0,0,2,.56,4,4,0,0,0,3.45-2Z"/><path class="46ca3ae4-f5f6-41de-934f-aee678a5e0ed" d="M338.44,30.61v-1.3a20.39,20.39,0,0,0,3-.39,33.83,33.83,0,0,0,3.81-1.09l.24.19q-.24,3.38-.24,6.25v1.91a27.92,27.92,0,0,0,.12,3.26,2.55,2.55,0,0,0,.82,1.62,2.59,2.59,0,0,0,1.73.55,3.31,3.31,0,0,0,2.07-.64,3.78,3.78,0,0,0,1.16-1.32,5.26,5.26,0,0,0,.21-1.85V34.88l0-2.43a3.63,3.63,0,0,0-.15-1.42.58.58,0,0,0-.34-.24,15.26,15.26,0,0,0-2.08-.19v-1.3q2.65-.34,3.61-.55t3.25-.94l.32.19-.19,3.14q-.14,3.35-.14,3.74v3.5a27.2,27.2,0,0,0,.15,3.86.64.64,0,0,0,.26.43,7.63,7.63,0,0,0,2.1.26v1.37l-3.52-.09-3.23.09-.12-.14.1-1.32q0-.32,0-1.32-.67.53-1.16,1l-1.93,1.83a6.93,6.93,0,0,1-2.38.43,5,5,0,0,1-3.62-1.26,4.45,4.45,0,0,1-1.32-3.37q0-.26.05-1.9,0-.87,0-2.26l0-3.61a3.42,3.42,0,0,0-.13-1.23.8.8,0,0,0-.42-.36A9.31,9.31,0,0,0,338.44,30.61Z"/><path class="46ca3ae4-f5f6-41de-934f-aee678a5e0ed" d="M360.09,44.31V43a8.54,8.54,0,0,0,2.19-.3.8.8,0,0,0,.34-.61,38.68,38.68,0,0,0,.17-4.84,58.73,58.73,0,0,0-.15-6.08.68.68,0,0,0-.22-.44,6.54,6.54,0,0,0-2.32-.24v-1.3a34.34,34.34,0,0,0,3.9-.58,19.45,19.45,0,0,0,2.87-.94l.41.22q-.21,2.67-.21,5v5.81a23.73,23.73,0,0,0,.14,3.52.56.56,0,0,0,.27.41,7.31,7.31,0,0,0,2.24.29v1.33q-2.43-.07-5.28-.07Q362,44.24,360.09,44.31Zm4.68-24.75a2.61,2.61,0,0,1,2.61,2.61,2.55,2.55,0,0,1-.76,1.86,2.61,2.61,0,0,1-3.7,0,2.63,2.63,0,0,1,0-3.71A2.51,2.51,0,0,1,364.77,19.57Z"/><path class="46ca3ae4-f5f6-41de-934f-aee678a5e0ed" d="M387.26,43v1.28q-2-.08-3.49-.09t-2.79.09l-.15-.19.15-2.24q-.62.39-3.62,2.7a6.79,6.79,0,0,1-1.47.17A3.85,3.85,0,0,1,373,43.66a4.36,4.36,0,0,1-1.05-3.14,4.84,4.84,0,0,1,.47-2.27,4,4,0,0,1,1-1.31,6,6,0,0,1,1.67-.81,35.59,35.59,0,0,1,5.91-1.5,4.64,4.64,0,0,0-.84-3.09,3.33,3.33,0,0,0-2.7-1.06,5.15,5.15,0,0,0-1.4.19,2.71,2.71,0,0,0-.68.34l-.72,1.73-1.16-.26.1-2.2q1.26-.85,2.41-1.49a9.92,9.92,0,0,1,1.61-.77,6.55,6.55,0,0,1,1.78-.19,7.54,7.54,0,0,1,3.07.54,4.55,4.55,0,0,1,1.78,1.27A4.26,4.26,0,0,1,385,31.2a8.76,8.76,0,0,1,.21,2.12q0,.55-.08,2.85-.05,1.54-.05,2.51a21.75,21.75,0,0,0,.17,3.69.56.56,0,0,0,.27.41A6.91,6.91,0,0,0,387.26,43Zm-6.27-7a19.9,19.9,0,0,0-2.66.74,3.43,3.43,0,0,0-1.67,1.08,2.7,2.7,0,0,0-.46,1.62,2.39,2.39,0,0,0,.56,1.69,1.9,1.9,0,0,0,1.46.6,3.1,3.1,0,0,0,1.55-.44A3.49,3.49,0,0,0,381,40.21Z"/><path class="1aee281d-9ae0-45cb-8d46-511609fa6b5a" d="M255.06,66.19h-2a31.21,31.21,0,0,0-.24-3.95,6.06,6.06,0,0,0-2.55-1.88,9.83,9.83,0,0,0-4.07-.82,7.06,7.06,0,0,0-5,1.65,5.12,5.12,0,0,0-1.77,3.86,5.91,5.91,0,0,0,.52,2.57,3.85,3.85,0,0,0,1.43,1.56,10.42,10.42,0,0,0,2.73,1.06q1.38.29,3.84.72t3.2.6a12.16,12.16,0,0,1,3.11,1.21,6.51,6.51,0,0,1,1.89,1.64,7.78,7.78,0,0,1,1.15,2.33,10.34,10.34,0,0,1,.45,3.16,11.23,11.23,0,0,1-1.26,5.41,11.45,11.45,0,0,1-2.64,3.21,12.54,12.54,0,0,1-3.47,2.18,18.21,18.21,0,0,1-6.84,1.16,22.14,22.14,0,0,1-5.2-.55,24.61,24.61,0,0,1-5-1.9,35.38,35.38,0,0,0,.76-8.35h2a30.17,30.17,0,0,0,.26,4.31A7.5,7.5,0,0,0,239.43,88a10.24,10.24,0,0,0,4.78,1.13,9.61,9.61,0,0,0,4-.81,5.36,5.36,0,0,0,2.57-2.23,6.48,6.48,0,0,0,.8-3.22,5.61,5.61,0,0,0-.56-2.6,4.12,4.12,0,0,0-1.75-1.73,18.35,18.35,0,0,0-4.18-1.35q-4.3-.91-5.65-1.32a8.19,8.19,0,0,1-3.29-1.8,7.37,7.37,0,0,1-1.87-2.85,10.29,10.29,0,0,1-.62-3.6,11.11,11.11,0,0,1,1.12-5,8.91,8.91,0,0,1,2.95-3.52,12.2,12.2,0,0,1,4.13-1.79,20.61,20.61,0,0,1,4.73-.54,25.67,25.67,0,0,1,4.88.46,15.93,15.93,0,0,1,4.1,1.32l.19.58a28.91,28.91,0,0,0-.49,3.07Q255.13,63.74,255.06,66.19Z"/><path class="1aee281d-9ae0-45cb-8d46-511609fa6b5a" d="M283.5,89.24V91q-2.73-.12-4.85-.12t-3.87.12l-.21-.26.21-3.15q-.85.55-5,3.8a9.33,9.33,0,0,1-2,.24,5.32,5.32,0,0,1-4.05-1.54,6.19,6.19,0,0,1-1.46-4.43,6.89,6.89,0,0,1,.65-3.2,5.62,5.62,0,0,1,1.4-1.84,8.34,8.34,0,0,1,2.32-1.14,48.89,48.89,0,0,1,8.22-2.12A6.59,6.59,0,0,0,273.62,73a4.6,4.6,0,0,0-3.75-1.49,7.07,7.07,0,0,0-1.95.26,3.73,3.73,0,0,0-1,.48l-1,2.43-1.62-.36.14-3.1q1.76-1.2,3.35-2.09a13.75,13.75,0,0,1,2.23-1.08,9,9,0,0,1,2.47-.26,10.38,10.38,0,0,1,4.26.76,6.34,6.34,0,0,1,2.47,1.79,6,6,0,0,1,1.09,2.21,12.48,12.48,0,0,1,.3,3q0,.77-.12,4-.07,2.17-.07,3.54a31,31,0,0,0,.24,5.2.78.78,0,0,0,.38.58A9.5,9.5,0,0,0,283.5,89.24Zm-8.72-9.82a27.52,27.52,0,0,0-3.69,1A4.77,4.77,0,0,0,268.77,82a3.83,3.83,0,0,0-.64,2.27,3.39,3.39,0,0,0,.77,2.38,2.62,2.62,0,0,0,2,.84,4.26,4.26,0,0,0,2.15-.63,4.87,4.87,0,0,0,1.7-1.59Z"/><path class="1aee281d-9ae0-45cb-8d46-511609fa6b5a" d="M313.34,89.19V91q-3.23-.17-5.27-.17-2.35,0-4.09.17l-.43-.43q0-.51.31-4.16L304,82.5V80.6a29.49,29.49,0,0,0-.32-5.53,3.8,3.8,0,0,0-1.32-2.13,4.11,4.11,0,0,0-2.66-.81,4.52,4.52,0,0,0-2.76.81,3.66,3.66,0,0,0-1.38,1.62,21.48,21.48,0,0,0-.14,3.85v4q0,1.76.09,4.31a4.45,4.45,0,0,0,.19,1.49.85.85,0,0,0,.31.39,3.46,3.46,0,0,0,1.12.36q.28,0,2,.19V91q-2.59-.1-6.34-.1-4.35,0-6.75.1V89.19a8.39,8.39,0,0,0,2.57-.26.91.91,0,0,0,.5-.41,4.43,4.43,0,0,0,.26-1.73l.1-2.14q0-.67,0-2.19V79.3q0-2.14-.14-5.2a6.28,6.28,0,0,0-.2-1.74.76.76,0,0,0-.42-.3,12.78,12.78,0,0,0-2.68-.24V70q4.32-.75,5.68-1.11a19.13,19.13,0,0,0,3.06-1.15l.64.29v3.87l4.32-3.51a8,8,0,0,1,1.32-.42,7.88,7.88,0,0,1,1.48-.11,9.65,9.65,0,0,1,3.81.58A6,6,0,0,1,308.49,70a6.35,6.35,0,0,1,1.24,2.19,13,13,0,0,1,.36,3.57q0,2.74,0,3.49c0,.19,0,.43,0,.7l0,2.48q0,4.07.13,5a2,2,0,0,0,.43,1.24,2.66,2.66,0,0,0,1.41.35Z"/><path class="1aee281d-9ae0-45cb-8d46-511609fa6b5a" d="M349.55,79.35h-1.9a11.58,11.58,0,0,0-.4-3.63,1.2,1.2,0,0,0-.86-.46,35.16,35.16,0,0,0-5.56-.31l-1.9,0v2.67q0,5.7.13,8a8.84,8.84,0,0,0,.37,2.68,1.13,1.13,0,0,0,.59.42,27.21,27.21,0,0,0,3.73.4V91l-9.31-.17q-2,0-6.39.17V89a15.73,15.73,0,0,0,3.16-.22.73.73,0,0,0,.36-.26,3,3,0,0,0,.33-1.25q.07-.55.19-3.48t.12-4.2v-10q0-.34-.21-6.74a12.25,12.25,0,0,0-.26-2.62.77.77,0,0,0-.23-.4,1.77,1.77,0,0,0-.67-.25A24.8,24.8,0,0,0,328,59.4v-2l8.43.14,11.43-.19a40.7,40.7,0,0,1,4.54.24l.21.34q-.26,1.37-.45,3.49T352,65.11H350q0-.58-.12-2.6a5.31,5.31,0,0,0-.14-1.27.46.46,0,0,0-.21-.24,6.23,6.23,0,0,0-2-.57,21.12,21.12,0,0,0-3.65-.28l-2.25.07q-1.84.07-2.51.12-.26,2.41-.26,8.69V72.4q3,.1,4.11.1a15.41,15.41,0,0,0,3.9-.29.75.75,0,0,0,.45-.55,11.32,11.32,0,0,0,.26-2.74h2.07Q349.55,73,349.55,79.35Z"/><path class="1aee281d-9ae0-45cb-8d46-511609fa6b5a" d="M368.68,89.19V91q-2.69-.12-6-.12-3.68,0-7.65.12V89.19a8.39,8.39,0,0,0,2.57-.26.91.91,0,0,0,.5-.41,4.43,4.43,0,0,0,.26-1.73l.1-2.14q0-.67,0-2.19V79.3q0-2.14-.14-5.2a6.28,6.28,0,0,0-.2-1.74.76.76,0,0,0-.42-.3,12.78,12.78,0,0,0-2.68-.24V70q4.32-.75,5.68-1.11a19.13,19.13,0,0,0,3.06-1.15l.64.29,0,4.86q1.54-1.61,2.38-2.67a10.71,10.71,0,0,1,1.85-1.9,4,4,0,0,1,2.26-.58,4.21,4.21,0,0,1,1.59.29l-.14,3.42q-.07,2.79-.12,3.2l-1,.31a4,4,0,0,0-1.14-1.11,3.8,3.8,0,0,0-1.92-.51,3.55,3.55,0,0,0-2.41.88,3.37,3.37,0,0,0-1.2,1.79q-.1.53-.09,4.07v2.41l0,3.27A14.14,14.14,0,0,0,364.6,88a1.07,1.07,0,0,0,.49.66,4.16,4.16,0,0,0,1.64.34Z"/><path class="1aee281d-9ae0-45cb-8d46-511609fa6b5a" d="M395.71,89.24V91q-2.73-.12-4.85-.12T387,91l-.21-.26.21-3.15q-.85.55-5,3.8a9.33,9.33,0,0,1-2,.24,5.32,5.32,0,0,1-4.05-1.54,6.19,6.19,0,0,1-1.46-4.43,6.89,6.89,0,0,1,.65-3.2,5.62,5.62,0,0,1,1.4-1.84,8.34,8.34,0,0,1,2.32-1.14A48.89,48.89,0,0,1,387,77.4,6.59,6.59,0,0,0,385.83,73a4.6,4.6,0,0,0-3.75-1.49,7.07,7.07,0,0,0-1.95.26,3.73,3.73,0,0,0-1,.48l-1,2.43-1.62-.36.14-3.1q1.76-1.2,3.35-2.09a13.75,13.75,0,0,1,2.23-1.08,9,9,0,0,1,2.47-.26,10.38,10.38,0,0,1,4.26.76,6.34,6.34,0,0,1,2.47,1.79,6,6,0,0,1,1.09,2.21,12.48,12.48,0,0,1,.3,3q0,.77-.12,4-.07,2.17-.07,3.54a31,31,0,0,0,.24,5.2.78.78,0,0,0,.38.58A9.5,9.5,0,0,0,395.71,89.24ZM387,79.42a27.52,27.52,0,0,0-3.69,1A4.77,4.77,0,0,0,381,82a3.83,3.83,0,0,0-.64,2.27,3.39,3.39,0,0,0,.77,2.38,2.62,2.62,0,0,0,2,.84,4.26,4.26,0,0,0,2.15-.63,4.87,4.87,0,0,0,1.7-1.59Z"/><path class="1aee281d-9ae0-45cb-8d46-511609fa6b5a" d="M425.55,89.19V91q-3.23-.17-5.27-.17-2.35,0-4.09.17l-.43-.43q0-.51.31-4.16l.12-3.95V80.6a29.42,29.42,0,0,0-.32-5.53,3.79,3.79,0,0,0-1.32-2.13,4.11,4.11,0,0,0-2.66-.81,4.52,4.52,0,0,0-2.76.81,3.66,3.66,0,0,0-1.38,1.62,21.53,21.53,0,0,0-.14,3.85v4q0,1.76.1,4.31a4.46,4.46,0,0,0,.19,1.49.84.84,0,0,0,.31.39,3.45,3.45,0,0,0,1.12.36q.28,0,2,.19V91q-2.59-.1-6.34-.1-4.35,0-6.75.1V89.19a8.39,8.39,0,0,0,2.57-.26.91.91,0,0,0,.5-.41,4.43,4.43,0,0,0,.26-1.73l.1-2.14q0-.67,0-2.19V79.3q0-2.14-.14-5.2a6.28,6.28,0,0,0-.2-1.74.76.76,0,0,0-.42-.3,12.78,12.78,0,0,0-2.68-.24V70q4.32-.75,5.68-1.11A19.09,19.09,0,0,0,407,67.71l.64.29v3.87l4.32-3.51a8.08,8.08,0,0,1,1.32-.42,7.87,7.87,0,0,1,1.48-.11,9.65,9.65,0,0,1,3.81.58A6.05,6.05,0,0,1,420.71,70a6.32,6.32,0,0,1,1.23,2.19,13,13,0,0,1,.36,3.57q0,2.74,0,3.49,0,.29,0,.7l0,2.48q0,4.07.13,5a2,2,0,0,0,.43,1.24,2.66,2.66,0,0,0,1.41.35Z"/><path class="1aee281d-9ae0-45cb-8d46-511609fa6b5a" d="M447,87.87l-1,2.33a17.35,17.35,0,0,1-3.31,1.36,12.46,12.46,0,0,1-3.05.33,11.62,11.62,0,0,1-6.32-1.54,9.67,9.67,0,0,1-3.68-4.4,13.4,13.4,0,0,1-.9-5.39,15,15,0,0,1,.47-4.14,9.39,9.39,0,0,1,1.35-2.84A7,7,0,0,1,432.11,72l3.66-2.33a15.31,15.31,0,0,1,2.54-1.44,8.51,8.51,0,0,1,3-.43,15.08,15.08,0,0,1,2.84.25,10.83,10.83,0,0,1,2.44.76l.24.41-.59,3.92q-.07.53-.24,3.32h-1.85a25.49,25.49,0,0,0-.36-3.18A3.63,3.63,0,0,0,442.21,72a5.75,5.75,0,0,0-2.57-.52,5.35,5.35,0,0,0-2.87.67,3.93,3.93,0,0,0-1.57,2.26,12.94,12.94,0,0,0-.5,3.85,13.69,13.69,0,0,0,1,5.43,7.7,7.7,0,0,0,2.7,3.51,7.26,7.26,0,0,0,4.12,1.12,8.59,8.59,0,0,0,2.12-.25,8.43,8.43,0,0,0,1.9-.73Z"/><path class="1aee281d-9ae0-45cb-8d46-511609fa6b5a" d="M449.79,91V89.26a11.77,11.77,0,0,0,3-.42,1.13,1.13,0,0,0,.47-.85,55.06,55.06,0,0,0,.24-6.81,83.68,83.68,0,0,0-.21-8.56A1,1,0,0,0,453,72a9,9,0,0,0-3.23-.34V69.82a47.21,47.21,0,0,0,5.42-.82,26.85,26.85,0,0,0,4-1.32l.57.31q-.29,3.75-.29,7v8.18a33.8,33.8,0,0,0,.19,5,.78.78,0,0,0,.38.58,10.05,10.05,0,0,0,3.11.41V91q-3.37-.1-7.34-.1Q452.4,90.95,449.79,91Zm6.51-34.84a3.47,3.47,0,0,1,2.58,1.08,3.75,3.75,0,0,1,0,5.22,3.6,3.6,0,0,1-5.14,0,3.74,3.74,0,0,1,0-5.22A3.47,3.47,0,0,1,456.3,56.21Z"/><path class="1aee281d-9ae0-45cb-8d46-511609fa6b5a" d="M466.9,83.46h1.9q.12,2.7.24,3.39a7.14,7.14,0,0,0,2.35,2,6.53,6.53,0,0,0,2.95.64,4.91,4.91,0,0,0,3.42-1.08,3.42,3.42,0,0,0,1.19-2.62,3.25,3.25,0,0,0-.39-1.67A3.49,3.49,0,0,0,477,82.86a33.68,33.68,0,0,0-3.55-.91,17.09,17.09,0,0,1-4-1.27,5,5,0,0,1-2.11-2.08,6.61,6.61,0,0,1-.76-3.24A7.08,7.08,0,0,1,469,69.83q2.47-2.2,7.1-2.2a17.36,17.36,0,0,1,3.54.34,11.46,11.46,0,0,1,2.92,1l.07.24q-.14.84-.21,1.71T482.24,75l-1.83,0q0-.27-.07-.89a14.83,14.83,0,0,0-.28-2.09,4.64,4.64,0,0,0-1.82-1.44,6.19,6.19,0,0,0-2.53-.48,4.77,4.77,0,0,0-3.12.91,2.76,2.76,0,0,0-1.1,2.19,3.06,3.06,0,0,0,.5,1.92,3,3,0,0,0,1.47.94,34.83,34.83,0,0,0,3.6.81,25.71,25.71,0,0,1,3.53.83A6.08,6.08,0,0,1,482.67,79a5.07,5.07,0,0,1,1.2,1.91,7.3,7.3,0,0,1,.42,2.51,7.79,7.79,0,0,1-2.74,6q-2.74,2.45-7.71,2.45a17.13,17.13,0,0,1-3.23-.3,27.54,27.54,0,0,1-3.83-1.09l-.26-.36q.19-1.85.24-2.62Z"/><path class="1aee281d-9ae0-45cb-8d46-511609fa6b5a" d="M506.41,87.87l-1,2.33A17.35,17.35,0,0,1,502,91.56a12.46,12.46,0,0,1-3.05.33,11.62,11.62,0,0,1-6.32-1.54,9.67,9.67,0,0,1-3.68-4.4,13.4,13.4,0,0,1-.9-5.39,15,15,0,0,1,.47-4.14,9.39,9.39,0,0,1,1.35-2.84A7,7,0,0,1,491.51,72l3.66-2.33a15.31,15.31,0,0,1,2.54-1.44,8.51,8.51,0,0,1,3-.43,15.08,15.08,0,0,1,2.84.25,10.83,10.83,0,0,1,2.44.76l.24.41-.59,3.92q-.07.53-.24,3.32h-1.85a25.49,25.49,0,0,0-.36-3.18A3.63,3.63,0,0,0,501.61,72a5.75,5.75,0,0,0-2.57-.52,5.35,5.35,0,0,0-2.87.67,3.93,3.93,0,0,0-1.57,2.26,12.94,12.94,0,0,0-.5,3.85,13.69,13.69,0,0,0,1,5.43,7.7,7.7,0,0,0,2.7,3.51,7.26,7.26,0,0,0,4.12,1.12,8.59,8.59,0,0,0,2.12-.25,8.43,8.43,0,0,0,1.9-.73Z"/><path class="1aee281d-9ae0-45cb-8d46-511609fa6b5a" d="M509.59,79.69A14.77,14.77,0,0,1,511,72.91a9,9,0,0,1,4.13-4,14.33,14.33,0,0,1,6.41-1.36q5.49,0,8.35,2.91T532.73,79a17.1,17.1,0,0,1-.83,5.63,10.17,10.17,0,0,1-5.18,6,13.69,13.69,0,0,1-5.94,1.25q-5.37,0-8.28-3.09T509.59,79.69Zm6.58-1.15q0,6.4,1.85,9.12a4,4,0,0,0,3.52,1.8,3.81,3.81,0,0,0,3.09-1.37q1.52-1.83,1.52-7.07a28.51,28.51,0,0,0-.61-6.32A6.88,6.88,0,0,0,523.76,71a4.15,4.15,0,0,0-2.84-1,4.2,4.2,0,0,0-2.49.76,4.88,4.88,0,0,0-1.66,2.55A17.55,17.55,0,0,0,516.17,78.53Z"/><path class="1aee281d-9ae0-45cb-8d46-511609fa6b5a" d="M546.89,96.79l.55-.31a8.56,8.56,0,0,0,1.88,1.38,3.52,3.52,0,0,0,1.52.35,2.19,2.19,0,0,0,1.43-.41,2.31,2.31,0,0,0,.72-1.18,16.72,16.72,0,0,0,.3-3.34q.14-5.08.14-5.63V68.81q0-3.1-.08-5.59a13.21,13.21,0,0,0-.27-2.95.82.82,0,0,0-.31-.38,1.88,1.88,0,0,0-.93-.26l-3.23-.12V57.38q4.58.17,9.27.17,3.92,0,6.72-.17v2.09q-2.42.07-2.9.14a1.58,1.58,0,0,0-.92.46,2.17,2.17,0,0,0-.37,1.23q-.17,2-.17,5.51v8.76l0,10.27a22.12,22.12,0,0,1-.7,6.21,13.18,13.18,0,0,1-2.32,4.35,16.35,16.35,0,0,1-2.7,2.63,13.74,13.74,0,0,1-3.09,1.88,7.22,7.22,0,0,1-2.79.64,5.64,5.64,0,0,1-1.92-.36Q546.89,99.53,546.89,96.79Z"/><path class="1aee281d-9ae0-45cb-8d46-511609fa6b5a" d="M588.92,89.24V91q-2.73-.12-4.85-.12T580.2,91l-.21-.26.21-3.15q-.86.55-5,3.8a9.32,9.32,0,0,1-2,.24,5.32,5.32,0,0,1-4.05-1.54,6.19,6.19,0,0,1-1.46-4.43,6.89,6.89,0,0,1,.65-3.2,5.62,5.62,0,0,1,1.4-1.84A8.34,8.34,0,0,1,572,79.52a48.87,48.87,0,0,1,8.22-2.12A6.6,6.6,0,0,0,579,73a4.6,4.6,0,0,0-3.75-1.49,7.06,7.06,0,0,0-1.95.26,3.74,3.74,0,0,0-1,.48l-1,2.43-1.62-.36.14-3.1q1.76-1.2,3.35-2.09a13.73,13.73,0,0,1,2.23-1.08,9,9,0,0,1,2.47-.26,10.39,10.39,0,0,1,4.26.76,6.34,6.34,0,0,1,2.47,1.79,6,6,0,0,1,1.09,2.21,12.48,12.48,0,0,1,.3,3q0,.77-.12,4-.07,2.17-.07,3.54a31.09,31.09,0,0,0,.24,5.2.79.79,0,0,0,.38.58A9.51,9.51,0,0,0,588.92,89.24Zm-8.72-9.82a27.47,27.47,0,0,0-3.69,1A4.77,4.77,0,0,0,574.19,82a3.83,3.83,0,0,0-.64,2.27,3.4,3.4,0,0,0,.77,2.38,2.63,2.63,0,0,0,2,.84,4.27,4.27,0,0,0,2.15-.63,4.88,4.88,0,0,0,1.7-1.59Z"/><path class="1aee281d-9ae0-45cb-8d46-511609fa6b5a" d="M601.13,91.23q-1.21-3.34-2.9-7.65l-3.14-8q-.43-1.08-1.59-3.73a2.58,2.58,0,0,0-.78-1.11,4.41,4.41,0,0,0-2.09-.41V68.43q3.37.07,6.61.07,3,0,6-.07v1.9a13.91,13.91,0,0,0-2.45.19.84.84,0,0,0-.46.25.63.63,0,0,0-.15.42l.09.43.93,2.91,1.9,5,.93,2.36q.83,2.17,1.09,2.77l1.54-3.61,1.45-3.58q1.43-3.39,1.92-5.08a5.15,5.15,0,0,0,.24-1.23.65.65,0,0,0-.36-.59,10.07,10.07,0,0,0-2.73-.3V68.43q2.45.07,4.59.07t4.87-.07v1.92a11.49,11.49,0,0,0-2.1.36,1.38,1.38,0,0,0-.58.58,43.9,43.9,0,0,0-2.07,4.33l-2.23,5.1-1,2.12q-.62,1.4-1.35,3.3-1.43,3.68-2,5.1Z"/><path class="1aee281d-9ae0-45cb-8d46-511609fa6b5a" d="M618.74,91V89.26a11.77,11.77,0,0,0,3-.42,1.13,1.13,0,0,0,.47-.85,55.06,55.06,0,0,0,.24-6.81,83.68,83.68,0,0,0-.21-8.56A1,1,0,0,0,622,72a9,9,0,0,0-3.23-.34V69.82a47.21,47.21,0,0,0,5.42-.82,26.85,26.85,0,0,0,4-1.32l.57.31q-.29,3.75-.29,7v8.18a33.8,33.8,0,0,0,.19,5,.78.78,0,0,0,.38.58,10.05,10.05,0,0,0,3.11.41V91q-3.37-.1-7.34-.1Q621.35,90.95,618.74,91Zm6.51-34.84a3.47,3.47,0,0,1,2.58,1.08,3.75,3.75,0,0,1,0,5.22,3.6,3.6,0,0,1-5.14,0,3.74,3.74,0,0,1,0-5.22A3.47,3.47,0,0,1,625.25,56.21Z"/><path class="1aee281d-9ae0-45cb-8d46-511609fa6b5a" d="M655.35,87.34l-1,2.36a15.62,15.62,0,0,1-4,1.78,13.77,13.77,0,0,1-3.52.41,14.08,14.08,0,0,1-4.15-.55,9.81,9.81,0,0,1-3.06-1.52,10.15,10.15,0,0,1-2.23-2.36,9.35,9.35,0,0,1-1.39-3.22,19.22,19.22,0,0,1,.4-9.62,6.43,6.43,0,0,1,1.33-2.5,19.83,19.83,0,0,1,2.47-1.8,24.35,24.35,0,0,1,2.9-1.73,9.51,9.51,0,0,1,3.92-.75,9.32,9.32,0,0,1,5.23,1.35,7.39,7.39,0,0,1,2.89,3.44,13.61,13.61,0,0,1,.84,5.08q0,.67,0,1.3a17.21,17.21,0,0,1-1.81.43,18.16,18.16,0,0,1-2.19.34q-1.78.14-4.7.17t-3.23,0l-.69,0h-1.57A8.93,8.93,0,0,0,644,86a7.06,7.06,0,0,0,5.27,2.2,9.76,9.76,0,0,0,2.5-.3,16.23,16.23,0,0,0,3-1.24Zm-5.65-10q.1-3.82-1-5.36a3.53,3.53,0,0,0-2.95-1.52,3.7,3.7,0,0,0-3.06,1.59q-1.24,1.61-1.14,5.29a34.78,34.78,0,0,0,4.68.22A23.44,23.44,0,0,0,649.7,77.38Z"/><path class="1aee281d-9ae0-45cb-8d46-511609fa6b5a" d="M672.74,89.19V91q-2.69-.12-6-.12-3.68,0-7.65.12V89.19a8.39,8.39,0,0,0,2.57-.26.91.91,0,0,0,.5-.41,4.42,4.42,0,0,0,.26-1.73l.1-2.14q0-.67,0-2.19V79.3q0-2.14-.14-5.2a6.29,6.29,0,0,0-.2-1.74.76.76,0,0,0-.42-.3,12.8,12.8,0,0,0-2.69-.24V70q4.32-.75,5.68-1.11a19.08,19.08,0,0,0,3.06-1.15l.64.29,0,4.86q1.54-1.61,2.38-2.67a10.7,10.7,0,0,1,1.85-1.9,4,4,0,0,1,2.26-.58,4.21,4.21,0,0,1,1.59.29l-.14,3.42q-.07,2.79-.12,3.2l-1,.31a4,4,0,0,0-1.14-1.11,3.79,3.79,0,0,0-1.92-.51,3.56,3.56,0,0,0-2.41.88,3.37,3.37,0,0,0-1.2,1.79q-.1.53-.1,4.07v2.41l0,3.27a14.14,14.14,0,0,0,.13,2.27,1.07,1.07,0,0,0,.49.66,4.16,4.16,0,0,0,1.64.34Z"/><path class="46ca3ae4-f5f6-41de-934f-aee678a5e0ed" d="M251.07,123.14v1.23l-3.59-.05-3.08.05-.15-.14.09-1.35,0-1.4q-1.18,1-2.58,2.22a8.84,8.84,0,0,1-1.08.87,4.8,4.8,0,0,1-1.73.26,6,6,0,0,1-4.7-2.08,8.2,8.2,0,0,1-1.86-5.68,10.84,10.84,0,0,1,.55-3.57,5.78,5.78,0,0,1,1-1.85,14.78,14.78,0,0,1,2.3-1.81A15.46,15.46,0,0,1,239,108.2a6.12,6.12,0,0,1,2.15-.32,6.43,6.43,0,0,1,1.36.12,15.2,15.2,0,0,1,1.85.63q.05-1,.05-2.1,0-1.3-.09-3.14a2.59,2.59,0,0,0-.19-1.11.55.55,0,0,0-.34-.22q-.22-.05-2.1-.1v-1.26a27.71,27.71,0,0,0,6.75-1.49l.44.26q-.21,4.58-.22,5.38-.05,4.46-.05,12.49v1.59q0,1.16.09,2.51a3.64,3.64,0,0,0,.17,1.17.71.71,0,0,0,.39.32A11,11,0,0,0,251.07,123.14Zm-6.75-10.92a6.64,6.64,0,0,0-1.54-1.47,4.88,4.88,0,0,0-2.48-.65,3.06,3.06,0,0,0-1.92.57,3.46,3.46,0,0,0-1.11,1.85,10.74,10.74,0,0,0-.37,3,7.6,7.6,0,0,0,1.33,4.8,3.23,3.23,0,0,0,2.67,1.25,3.57,3.57,0,0,0,2.21-.72,2.85,2.85,0,0,0,1.13-1.38,24.67,24.67,0,0,0,.18-4.07Z"/><path class="46ca3ae4-f5f6-41de-934f-aee678a5e0ed" d="M267.81,121.74l-.75,1.67a11.31,11.31,0,0,1-2.89,1.26,10,10,0,0,1-2.53.29,10.26,10.26,0,0,1-3-.39,7.08,7.08,0,0,1-2.21-1.08,7.26,7.26,0,0,1-1.61-1.67,6.63,6.63,0,0,1-1-2.29,13.49,13.49,0,0,1,.29-6.84,4.56,4.56,0,0,1,1-1.78,14.36,14.36,0,0,1,1.78-1.28,17.61,17.61,0,0,1,2.08-1.23,6.92,6.92,0,0,1,2.82-.53,6.77,6.77,0,0,1,3.76,1,5.27,5.27,0,0,1,2.08,2.44,9.56,9.56,0,0,1,.61,3.61q0,.48,0,.92a12.48,12.48,0,0,1-1.3.31,13.19,13.19,0,0,1-1.57.24q-1.28.1-3.38.12l-2.32,0-.5,0H258a6.3,6.3,0,0,0,1.67,4.26,5.11,5.11,0,0,0,3.79,1.56,7.08,7.08,0,0,0,1.79-.21,11.78,11.78,0,0,0,2.15-.88Zm-4.07-7.08a6.42,6.42,0,0,0-.73-3.81,2.55,2.55,0,0,0-2.12-1.08,2.68,2.68,0,0,0-2.2,1.13,5.94,5.94,0,0,0-.82,3.76,25.36,25.36,0,0,0,3.37.15A17.1,17.1,0,0,0,263.74,114.67Z"/><path class="46ca3ae4-f5f6-41de-934f-aee678a5e0ed" d="M288.83,123v1.37q-2.14-.14-4.46-.14t-5.23.14V123a14.12,14.12,0,0,0,2-.14.84.84,0,0,0,.38-.2.75.75,0,0,0,.18-.4,25.11,25.11,0,0,0,.17-3.23q.05-2.72.05-4.82V108.6q0-2.68-.12-4.9a6.06,6.06,0,0,0-.17-1.42.5.5,0,0,0-.19-.19,1.68,1.68,0,0,0-.65-.21q-.26,0-1.54-.09v-1.26q2.12-.22,3.38-.49t3.4-.93l.36.21-.14,3.45q-.09,2.91-.1,7.13v4.38q0,2.48,0,3.71.07,3.06.1,3.7a2.61,2.61,0,0,0,.12.81.48.48,0,0,0,.17.21,1.26,1.26,0,0,0,.53.19Q287.24,122.92,288.83,123Z"/><path class="46ca3ae4-f5f6-41de-934f-aee678a5e0ed" d="M306.55,123.09v1.28q-2-.08-3.49-.09t-2.79.09l-.15-.19.15-2.24q-.62.39-3.62,2.7a6.79,6.79,0,0,1-1.47.17,3.85,3.85,0,0,1-2.91-1.09,4.36,4.36,0,0,1-1.05-3.14,4.84,4.84,0,0,1,.47-2.27,4,4,0,0,1,1-1.31,6,6,0,0,1,1.67-.81,35.59,35.59,0,0,1,5.91-1.5,4.64,4.64,0,0,0-.84-3.09,3.33,3.33,0,0,0-2.7-1.06,5.15,5.15,0,0,0-1.4.19,2.71,2.71,0,0,0-.68.34l-.72,1.73-1.16-.26.1-2.2q1.26-.85,2.41-1.49a9.92,9.92,0,0,1,1.61-.77,6.55,6.55,0,0,1,1.78-.19,7.54,7.54,0,0,1,3.07.54,4.55,4.55,0,0,1,1.78,1.27,4.26,4.26,0,0,1,.79,1.57,8.76,8.76,0,0,1,.21,2.12q0,.55-.09,2.85-.05,1.54-.05,2.51a21.75,21.75,0,0,0,.17,3.69.56.56,0,0,0,.27.41A6.91,6.91,0,0,0,306.55,123.09Zm-6.27-7a19.9,19.9,0,0,0-2.66.74,3.43,3.43,0,0,0-1.67,1.08,2.7,2.7,0,0,0-.46,1.62,2.39,2.39,0,0,0,.56,1.69,1.9,1.9,0,0,0,1.46.6,3.1,3.1,0,0,0,1.55-.44,3.49,3.49,0,0,0,1.22-1.13Z"/><path class="46ca3ae4-f5f6-41de-934f-aee678a5e0ed" d="M309.18,119h1.37q.08,1.91.17,2.41a5.11,5.11,0,0,0,1.69,1.39,4.75,4.75,0,0,0,2.12.45,3.56,3.56,0,0,0,2.46-.77,2.42,2.42,0,0,0,.85-1.86,2.27,2.27,0,0,0-.28-1.19,2.5,2.5,0,0,0-1.14-.86,24.4,24.4,0,0,0-2.56-.65A12.4,12.4,0,0,1,311,117a3.55,3.55,0,0,1-1.52-1.48,4.65,4.65,0,0,1-.55-2.3,5,5,0,0,1,1.78-3.92,7.5,7.5,0,0,1,5.11-1.56,12.67,12.67,0,0,1,2.55.24,8.32,8.32,0,0,1,2.1.72l.05.17q-.1.6-.15,1.21t-.15,2.91l-1.32,0q0-.19-.05-.63a10.39,10.39,0,0,0-.21-1.49,3.33,3.33,0,0,0-1.31-1,4.5,4.5,0,0,0-1.82-.34,3.46,3.46,0,0,0-2.25.65,2,2,0,0,0-.79,1.56,1.81,1.81,0,0,0,1.42,2,25.26,25.26,0,0,0,2.59.57,18.7,18.7,0,0,1,2.54.59,4.37,4.37,0,0,1,1.5.91,3.59,3.59,0,0,1,.86,1.36,5.14,5.14,0,0,1,.3,1.79,5.5,5.5,0,0,1-2,4.29,8.1,8.1,0,0,1-5.55,1.74,12.49,12.49,0,0,1-2.32-.21,20.11,20.11,0,0,1-2.75-.78l-.19-.26q.14-1.32.17-1.86Z"/><path class="46ca3ae4-f5f6-41de-934f-aee678a5e0ed" d="M356,121.28l-.79,1.73a17.26,17.26,0,0,1-3.84,1.55,18.15,18.15,0,0,1-4.25.42,16.75,16.75,0,0,1-6.41-1.15,11.51,11.51,0,0,1-6-5.74,13.64,13.64,0,0,1-1.25-5.83,11.44,11.44,0,0,1,3.68-8.79q3.68-3.41,10.4-3.41a22.81,22.81,0,0,1,4.14.34,28.13,28.13,0,0,1,4.26,1.21l.09.22a10.44,10.44,0,0,0-.43,2q-.26,1.93-.32,3.57h-1.33q0-1.88-.17-3a7.54,7.54,0,0,0-2.57-1.79,9.66,9.66,0,0,0-3.65-.59,8.45,8.45,0,0,0-6.43,2.54,9.88,9.88,0,0,0-2.41,7.08,13,13,0,0,0,.81,4.8,9.77,9.77,0,0,0,2.16,3.39,9.38,9.38,0,0,0,2.72,2,11.16,11.16,0,0,0,4.51.82,13.41,13.41,0,0,0,3.3-.39,15.68,15.68,0,0,0,3.38-1.35Z"/><path class="46ca3ae4-f5f6-41de-934f-aee678a5e0ed" d="M358.38,116.31a10.37,10.37,0,0,1,1-4.81,6.43,6.43,0,0,1,3-2.87,10.42,10.42,0,0,1,4.61-1,8.12,8.12,0,0,1,6,2.07Q375,111.8,375,115.8a12,12,0,0,1-.6,4,7.35,7.35,0,0,1-1.61,2.73,7.47,7.47,0,0,1-2.12,1.56,10,10,0,0,1-4.27.89,7.84,7.84,0,0,1-6-2.2Q358.38,120.58,358.38,116.31Zm4.73-.82q0,4.55,1.33,6.48a2.89,2.89,0,0,0,2.53,1.28,2.75,2.75,0,0,0,2.22-1q1.09-1.3,1.09-5a20,20,0,0,0-.44-4.49,4.86,4.86,0,0,0-1.28-2.61,3,3,0,0,0-2-.73,3,3,0,0,0-1.79.54,3.47,3.47,0,0,0-1.2,1.81A12.32,12.32,0,0,0,363.12,115.49Z"/><path class="46ca3ae4-f5f6-41de-934f-aee678a5e0ed" d="M387,123v1.37q-2.14-.14-4.46-.14t-5.23.14V123a14.12,14.12,0,0,0,2-.14.84.84,0,0,0,.38-.2.75.75,0,0,0,.18-.4,25.11,25.11,0,0,0,.17-3.23q.05-2.72.05-4.82V108.6q0-2.68-.12-4.9a6.06,6.06,0,0,0-.17-1.42.5.5,0,0,0-.19-.19,1.68,1.68,0,0,0-.65-.21q-.26,0-1.54-.09v-1.26q2.12-.22,3.38-.49t3.4-.93l.36.21-.14,3.45q-.09,2.91-.1,7.13v4.38q0,2.48,0,3.71.07,3.06.1,3.7a2.61,2.61,0,0,0,.12.81.48.48,0,0,0,.17.21,1.26,1.26,0,0,0,.53.19Q385.42,122.92,387,123Z"/><path class="46ca3ae4-f5f6-41de-934f-aee678a5e0ed" d="M389.21,124.37v-1.26a8.54,8.54,0,0,0,2.19-.3.8.8,0,0,0,.34-.61,38.68,38.68,0,0,0,.17-4.84,58.73,58.73,0,0,0-.15-6.08.68.68,0,0,0-.22-.44,6.54,6.54,0,0,0-2.32-.24v-1.3a34.34,34.34,0,0,0,3.9-.58,19.45,19.45,0,0,0,2.87-.94l.41.22q-.21,2.67-.21,5v5.81a23.73,23.73,0,0,0,.14,3.52.56.56,0,0,0,.27.41,7.31,7.31,0,0,0,2.24.29v1.33q-2.43-.07-5.28-.07Q391.09,124.31,389.21,124.37Zm4.68-24.75a2.61,2.61,0,0,1,2.61,2.61,2.55,2.55,0,0,1-.76,1.86,2.61,2.61,0,0,1-3.7,0,2.63,2.63,0,0,1,0-3.71A2.51,2.51,0,0,1,393.89,99.63Z"/><path class="46ca3ae4-f5f6-41de-934f-aee678a5e0ed" d="M420.35,123.06v1.32q-2.32-.12-3.79-.12-1.69,0-2.94.12l-.31-.31c0-.24.1-1.22.22-3l.08-2.8V117a20.66,20.66,0,0,0-.23-3.93,2.69,2.69,0,0,0-.95-1.51,3,3,0,0,0-1.91-.57,3.28,3.28,0,0,0-2,.57,2.61,2.61,0,0,0-1,1.15,15.11,15.11,0,0,0-.1,2.73v2.87q0,1.25.07,3.06a3.09,3.09,0,0,0,.14,1.06.61.61,0,0,0,.22.27,2.5,2.5,0,0,0,.8.26l1.44.14v1.32q-1.86-.07-4.56-.07-3.13,0-4.85.07v-1.32a6.11,6.11,0,0,0,1.85-.19.66.66,0,0,0,.36-.29,3.11,3.11,0,0,0,.19-1.23l.07-1.52q0-.48,0-1.56V116q0-1.52-.1-3.69a4.43,4.43,0,0,0-.15-1.24.55.55,0,0,0-.3-.21,9.31,9.31,0,0,0-1.93-.17V109.4q3.11-.53,4.08-.79a13.88,13.88,0,0,0,2.2-.82l.46.21v2.75l3.11-2.5a5.91,5.91,0,0,1,.95-.3,5.78,5.78,0,0,1,1.07-.08,7,7,0,0,1,2.74.41,4.33,4.33,0,0,1,1.55,1.15,4.5,4.5,0,0,1,.89,1.55,9.19,9.19,0,0,1,.26,2.54q0,1.95,0,2.48c0,.14,0,.3,0,.5l0,1.76q0,2.89.09,3.57a1.4,1.4,0,0,0,.31.88,1.93,1.93,0,0,0,1,.25Z"/><path class="46ca3ae4-f5f6-41de-934f-aee678a5e0ed" d="M437.76,123.09v1.28q-2-.08-3.49-.09t-2.79.09l-.15-.19.15-2.24q-.62.39-3.62,2.7a6.79,6.79,0,0,1-1.47.17,3.85,3.85,0,0,1-2.91-1.09,4.36,4.36,0,0,1-1.05-3.14,4.84,4.84,0,0,1,.47-2.27,4,4,0,0,1,1-1.31,6,6,0,0,1,1.67-.81,35.58,35.58,0,0,1,5.91-1.5,4.65,4.65,0,0,0-.84-3.09,3.33,3.33,0,0,0-2.7-1.06,5.14,5.14,0,0,0-1.4.19,2.7,2.7,0,0,0-.68.34l-.72,1.73-1.16-.26.1-2.2q1.26-.85,2.41-1.49a9.9,9.9,0,0,1,1.61-.77,6.55,6.55,0,0,1,1.78-.19,7.54,7.54,0,0,1,3.07.54,4.55,4.55,0,0,1,1.78,1.27,4.26,4.26,0,0,1,.79,1.57,8.76,8.76,0,0,1,.21,2.12q0,.55-.08,2.85-.05,1.54-.05,2.51a21.75,21.75,0,0,0,.17,3.69.56.56,0,0,0,.27.41A6.91,6.91,0,0,0,437.76,123.09Zm-6.27-7a19.9,19.9,0,0,0-2.66.74,3.43,3.43,0,0,0-1.67,1.08,2.69,2.69,0,0,0-.46,1.62,2.39,2.39,0,0,0,.56,1.69,1.9,1.9,0,0,0,1.46.6,3.1,3.1,0,0,0,1.55-.44,3.49,3.49,0,0,0,1.22-1.13Z"/><path class="46ca3ae4-f5f6-41de-934f-aee678a5e0ed" d="M440.4,119h1.37q.09,1.91.17,2.41a5.09,5.09,0,0,0,1.69,1.39,4.75,4.75,0,0,0,2.12.45,3.56,3.56,0,0,0,2.46-.77,2.42,2.42,0,0,0,.85-1.86,2.27,2.27,0,0,0-.28-1.19,2.5,2.5,0,0,0-1.14-.86,24.31,24.31,0,0,0-2.55-.65,12.4,12.4,0,0,1-2.86-.91,3.55,3.55,0,0,1-1.52-1.48,4.64,4.64,0,0,1-.55-2.3,5,5,0,0,1,1.78-3.92,7.5,7.5,0,0,1,5.11-1.56,12.68,12.68,0,0,1,2.55.24,8.32,8.32,0,0,1,2.1.72l.05.17q-.1.6-.15,1.21t-.15,2.91l-1.32,0q0-.19-.05-.63a10.67,10.67,0,0,0-.21-1.49,3.34,3.34,0,0,0-1.31-1,4.5,4.5,0,0,0-1.82-.34,3.46,3.46,0,0,0-2.25.65,2,2,0,0,0-.79,1.56,1.81,1.81,0,0,0,1.42,2,25.31,25.31,0,0,0,2.59.57,18.65,18.65,0,0,1,2.54.59,4.36,4.36,0,0,1,1.5.91,3.58,3.58,0,0,1,.86,1.36,5.14,5.14,0,0,1,.3,1.79,5.5,5.5,0,0,1-2,4.29,8.1,8.1,0,0,1-5.55,1.74,12.5,12.5,0,0,1-2.32-.21,20.11,20.11,0,0,1-2.75-.78l-.19-.26q.14-1.32.17-1.86Z"/></g></g></svg>