<svg xmlns="http://www.w3.org/2000/svg" viewBox="0 0 227.94 144.54"><defs><style>.\33 77032a8-fc8e-444a-9a4b-b655d6947c95{fill:#073a68;}.\32 1f0c17d-8690-4ef3-b1a6-ff88be348d58{fill:#4d4d4d;}.bb290d13-40f9-41d6-bf99-1054944090ab{fill:#fff;}.\37 0ecbbe6-1614-49d5-87b9-4a92a1f9f2a6{fill:none;stroke:#073a68;stroke-linecap:round;stroke-miterlimit:10;}</style></defs><title>Recurso 2 1</title><g id="93200f3f-51aa-49f4-8a7c-99acdf505489" data-name="Capa 2"><g id="557d10d2-1150-4d04-88ad-a595d6b8c403" data-name="Capa 1"><polygon class="377032a8-fc8e-444a-9a4b-b655d6947c95" points="227.94 144.54 0 144.54 0 141.84 10.4 141.84 21.95 141.84 227.94 141.84 227.94 144.54"/><path class="21f0c17d-8690-4ef3-b1a6-ff88be348d58" d="M102.9,37.66,47.26,142h96.66"/><polygon class="377032a8-fc8e-444a-9a4b-b655d6947c95" points="113.7 16.34 119.22 5.86 173.16 142 163.57 142 113.7 16.34"/><polygon class="377032a8-fc8e-444a-9a4b-b655d6947c95" points="111.73 19.48 104.71 33.38 146.98 142 161.57 142 111.73 19.48"/><polygon class="377032a8-fc8e-444a-9a4b-b655d6947c95" points="118.27 4 43.41 142 31.57 142 109.17 4 118.27 4"/><polygon class="377032a8-fc8e-444a-9a4b-b655d6947c95" points="29.57 142 23.57 142 97.77 12 103.57 12 29.57 142"/><polygon class="377032a8-fc8e-444a-9a4b-b655d6947c95" points="22.07 142 16.07 142 87.27 17 93.07 17 22.07 142"/><polygon class="377032a8-fc8e-444a-9a4b-b655d6947c95" points="14.07 142 8.07 142 78.27 19 84.07 19 14.07 142"/><polygon class="377032a8-fc8e-444a-9a4b-b655d6947c95" points="6.32 142 0.32 142 67.52 24 73.32 24 6.32 142"/><rect class="377032a8-fc8e-444a-9a4b-b655d6947c95" x="175.18" width="26.15" height="141.84"/><circle class="bb290d13-40f9-41d6-bf99-1054944090ab" cx="188.25" cy="23" r="9.71"/><polyline class="70ecbbe6-1614-49d5-87b9-4a92a1f9f2a6" points="188.41 16 188.41 23.5 191.91 23.5"/><polygon class="bb290d13-40f9-41d6-bf99-1054944090ab" points="115.91 82 103.91 82 103.91 74 94.91 74 94.91 82 82.91 82 82.91 90 94.91 90 94.91 114 103.91 114 103.91 90 115.91 90 115.91 82"/></g></g></svg>